<svg width="998" height="288" viewBox="0 0 998 288" fill="none" xmlns="http://www.w3.org/2000/svg">
<path d="M823.333 7.5L984.848 280.5H7.5V7.5H823.333Z" fill="#238741" stroke="url(#paint0_linear_72_155)" stroke-width="15"/>
<path d="M400 148.273V132.727H407.773V124.955H415.545V117.182H423.318V109.409H431.091V101.636H438.864V93.8636H446.636V86.0909H454.409V78.3182H462.182V70.5455H469.955V62.7727H477.727V55H485.5V62.7727H493.273V70.5455H501.045V78.3182H493.273V86.0909H485.5V93.8636H477.727V101.636H469.955V109.409H462.182V117.182H454.409V124.955H571V156.045H454.409V163.818H462.182V171.591H469.955V179.364H477.727V187.136H485.5V194.909H493.273V202.682H501.045V210.455H493.273V218.227H485.5V226H477.727V218.227H469.955V210.455H462.182V202.682H454.409V194.909H446.636V187.136H438.864V179.364H431.091V171.591H423.318V163.818H415.545V156.045H407.773V148.273H400Z" fill="white"/>
<defs>
<linearGradient id="paint0_linear_72_155" x1="0" y1="144" x2="1013.82" y2="144" gradientUnits="userSpaceOnUse">
<stop stop-color="#D3D3D3"/>
<stop offset="1" stop-color="#238741"/>
</linearGradient>
</defs>
</svg>
